:SAMPLES-PER-SECOND 30
:FULLY-SPECIFIED
:DEGREES
96
root  35.00936613 36.50911887 -14.72162712 11.61985683 10.08130074 4.191126823
lowerback  -8.531270027 2.646100044 3.064749479
upperback  -4.516009808 2.914210081 -4.435299873
thorax  0.4796549976 1.185479999 -6.085690022
lowerneck  -15.0607996 -3.519390106 -0.8124780059
upperneck  11.37100029 -5.683430195 6.355130196
head  6.135340214 -2.358710051 1.596240044
lclavicle  0 -4.497500157e-015 -2.743230041e-014
lhumerus  -43.34550095 27.42090034 68.3884964
lradius  -0.09393916279 -6.507048965e-006 26.18530083
lwrist  4.824992743e-007 -3.790274832e-007 -34.20709991
lhand  -3.515113215e-031 -36.9966011 -10.67780018
lfingers  90 7.125020027 -90
lthumb  94.86194611 -25.51012802 101.1726227
rclavicle  0 -4.497500157e-015 -2.743230041e-014
rhumerus  49.73860168 -5.852170467 -53.53219986
rradius  -5.16745672e-007 2.214343908e-008 64.04499817
rwrist  1.380293725e-006 2.528095422e-007 -168.4929962
rhand  -3.094559782e-031 4.305520058 -6.522260189
rfingers  -90 -7.125020027 -90
rthumb  -84.58030701 -9.399525642 -59.8468132
rfemur  -14.26913929 11.3505106 14.33653545
rtibia  -2.524291277 2.047759771 23.33893967
rfoot  -2.254628658 -15.19462395 -43.87875366
rtoes  4.183006287 19.57185555 -102.3140106
lfemur  -12.33790493 -21.40620995 -18.48841858
ltibia  3.184458256 2.388848543 15.01927471
lfoot  0.6566687822 -29.80443764 29.84436989
ltoes  -8.508223534 -18.16744614 -115.6314621
97
root  35.00683402 36.50677298 -14.72198907 11.64416218 10.29583836 4.236377239
lowerback  -8.535369873 2.6572299 3.087869644
upperback  -4.517827034 2.929239988 -4.442910194
thorax  0.4916949868 1.193799973 -6.105249882
lowerneck  -15.08279991 -3.616519928 -0.8673120141
upperneck  11.3508997 -5.802539825 6.365670204
head  6.134189129 -2.418019533 1.59469533
lclavicle  0 -4.497500157e-015 -2.743230041e-014
lhumerus  -43.30310059 27.49500084 68.33100128
lradius  -0.09440543503 -6.507048965e-006 26.11519814
lwrist  4.824992743e-007 -3.790274832e-007 -34.27149963
lhand  -3.515213817e-031 -37.00920105 -10.67479992
lfingers  90 7.125020027 -90
lthumb  94.86723328 -25.50673676 101.1858749
rclavicle  0 -4.497500157e-015 -2.743230041e-014
rhumerus  50.63050461 -6.079851151 -53.45640182
rradius  -5.16745672e-007 2.214343908e-008 63.00880051
rwrist  1.380293725e-006 2.528095422e-007 -168.220993
rhand  -3.081193125e-031 4.240600109 -6.721439838
rfingers  -90 -7.125020027 -90
rthumb  -84.69727325 -9.223480225 -59.92655563
rfemur  -14.27435017 11.28884888 14.35221386
rtibia  -2.573806047 2.061135292 23.39405251
rfoot  -2.295898438 -15.1109705 -43.99245071
rtoes  4.173572063 19.57262421 -102.2858505
lfemur  -12.33636475 -21.4734211 -18.51626396
ltibia  3.228404999 2.426097393 14.97640991
lfoot  0.6720545888 -29.86646652 29.74409103
ltoes  -8.487998962 -18.17665291 -115.5666046
98
root  35.00428688 36.50210824 -14.7233993 11.66296291 10.46767712 4.26705122
lowerback  -8.535128593 2.700469971 3.123749256
upperback  -4.516195774 2.985399961 -4.466849804
thorax  0.5016570091 1.221850038 -6.145569801
lowerneck  -15.08180046 -3.727279902 -0.9265189767
upperneck  11.30650043 -5.937920094 6.38022995
head  6.131879807 -2.48567009 1.596929908
lclavicle  0 -4.497500157e-015 -2.743230041e-014
lhumerus  -43.23730087 27.45940208 68.35939789
lradius  -0.09487210214 -6.507048965e-006 26.0632
lwrist  4.824992743e-007 -3.790274832e-007 -34.14519882
lhand  -3.520417595e-031 -36.9980011 -10.61380005
lfingers  90 7.125020027 -90
lthumb  94.84887695 -25.44721985 101.1682587
rclavicle  0 -4.497500157e-015 -2.743230041e-014
rhumerus  51.39710236 -6.324419975 -53.38779831
rradius  -5.16745672e-007 2.214343908e-008 62.00550079
rwrist  1.380293725e-006 2.528095422e-007 -168.0529938
rhand  -3.082964053e-031 4.238279819 -6.695139885
rfingers  -90 -7.125020027 -90
rthumb  -84.68448639 -9.246095657 -59.92666626
rfemur  -14.27840042 11.18271542 14.37447739
rtibia  -2.614643335 2.059929371 23.42946434
rfoot  -2.328175545 -15.06679153 -44.0626297
rtoes  4.174742222 19.57335663 -102.2893448
lfemur  -12.40038204 -21.60153389 -18.4980011
ltibia  3.225163221 2.425990343 15.02643585
lfoot  0.6958078742 -29.88307571 29.71957207
ltoes  -8.468053818 -18.18570518 -115.5026855
99
root  35.00295023 36.50074456 -14.72665531 11.66797924 10.66027546 4.300372124
lowerback  -8.566558838 2.776429892 3.2220397
upperback  -4.514080048 3.078609943 -4.533699989
thorax  0.5349509716 1.266839981 -6.262519836
lowerneck  -15.07369995 -3.868489981 -1.023609996
upperneck  11.27519989 -6.121550083 6.470099926
head  6.133609772 -2.573630095 1.622619987
lclavicle  0 -4.497500157e-015 -2.743230041e-014
lhumerus  -43.06679916 27.34070015 68.46510315
lradius  -0.09533958137 -6.507048965e-006 26.07049942
lwrist  4.824992743e-007 -3.790274832e-007 -33.81349945
lhand  -3.516419995e-031 -37.04859924 -10.65470028
lfingers  90 7.125020027 -90
lthumb  94.88130188 -25.48556709 101.2260132
rclavicle  0 -4.497500157e-015 -2.743230041e-014
rhumerus  52.1998024 -6.611260414 -53.56290054
rradius  -5.16745672e-007 2.214343908e-008 60.88190079
rwrist  1.380293725e-006 2.528095422e-007 -167.2409973
rhand  -3.085210839e-031 4.305830002 -6.661159992
rfingers  -90 -7.125020027 -90
rthumb  -84.65094757 -9.279388428 -59.85798264
rfemur  -14.2774229 11.15544701 14.40603542
rtibia  -2.663331747 2.113429546 23.49027443
rfoot  -2.346865892 -14.91164207 -44.14209366
rtoes  4.164597988 19.57404518 -102.2590714
lfemur  -12.43263149 -21.77162361 -18.49099922
ltibia  3.231124878 2.412501097 15.05158806
lfoot  0.703350246 -29.86269951 29.68448639
ltoes  -8.454794884 -18.19170761 -115.4602127
100
root  35.000322 36.49924871 -14.72916791 11.67439651 10.8570652 4.347813606
lowerback  -8.603900909 2.846329927 3.325780392
upperback  -4.513959885 3.163929939 -4.59292984
thorax  0.5753030181 1.308500051 -6.374979973
lowerneck  -15.07789993 -3.99958992 -1.148980021
upperneck  11.25959969 -6.292970181 6.595759869
head  6.144499779 -2.653700113 1.665049911
lclavicle  0 -4.497500157e-015 -2.743230041e-014
lhumerus  -42.97800064 27.51869965 68.36329651
lradius  -0.09580825269 -6.507048965e-006 26.0075016
lwrist  4.824992743e-007 -3.790274832e-007 -34.00239944
lhand  -3.515207994e-031 -37.05260086 -10.66870022
lfingers  90 7.125020027 -90
lthumb  94.88621521 -25.49916267 101.231636
rclavicle  0 -4.497500157e-015 -2.743230041e-014
rhumerus  52.95100021 -6.908658981 -53.68450165
rradius  -5.16745672e-007 2.214343908e-008 59.82279968
rwrist  1.380293725e-006 2.528095422e-007 -166.4850006
rhand  -3.089516612e-031 4.258709908 -6.59758997
rfingers  -90 -7.125020027 -90
rthumb  -84.63000488 -9.331672668 -59.89870834
rfemur  -14.26480007 11.09225082 14.42069817
rtibia  -2.709764004 2.127995253 23.54611015
rfoot  -2.393039942 -14.83397388 -44.25744247
rtoes  4.195169449 19.57468033 -102.3503189
lfemur  -12.4153738 -21.89637375 -18.52310371
ltibia  3.269179821 2.416590691 15.00619602
lfoot  0.7013170123 -29.8522892 29.61481285
ltoes  -8.496603012 -18.17273903 -115.5941925
